<svg width="17" height="16" viewBox="0 0 17 16" fill="none" xmlns="http://www.w3.org/2000/svg">
  <path
    d="M10.1545 4.7921C10.0734 6.13441 9.99261 7.47672 9.91157 8.81903C9.78164 10.9661 9.65193 13.1132 9.52108 15.2597C9.48848 15.7942 9.48688 15.7936 9.28004 15.7936C9.02476 15.7936 8.76926 15.7869 8.51398 15.7978C8.43822 15.8009 8.40723 15.729 8.39507 15.5355C8.28051 13.7128 8.16366 11.8914 8.0475 10.07C7.93708 8.33812 7.82666 6.6062 7.71601 4.87489C7.71234 4.81645 7.70591 4.75984 7.69122 4.70505C7.69122 4.78601 7.69122 4.86759 7.69122 4.94855C7.69122 8.44039 7.69122 11.9328 7.69122 15.4247C7.69122 15.7924 7.69099 15.793 7.55577 15.793C7.2803 15.793 7.00482 15.7936 6.72957 15.793C6.60515 15.793 6.60423 15.7905 6.60423 15.4648C6.604 13.3573 6.60423 11.2498 6.60423 9.14228C6.60423 6.21294 6.60423 3.28421 6.60423 0.354868C6.60423 -0.0176917 6.60446 -0.0183005 6.74725 -0.0183005C7.27226 -0.0183005 7.79728 -0.014648 8.32229 -0.021953C8.40448 -0.0231706 8.44052 0.0212687 8.45292 0.268424C8.55461 2.30289 8.66366 4.33493 8.76972 6.36757C8.81884 7.30871 8.86544 8.25045 8.91365 9.1922C8.91618 9.24334 8.92169 9.29387 8.93868 9.34622C8.96278 8.89513 8.98734 8.44404 9.01076 7.99234C9.07182 6.81744 9.13243 5.64315 9.19326 4.46824C9.26535 3.0748 9.33858 1.68257 9.40745 0.287905C9.41824 0.0681431 9.44372 -0.0262144 9.53509 -0.0243881C10.0773 -0.0134304 10.6196 -0.0152567 11.1618 -0.0231706C11.2437 -0.0243881 11.2713 0.0437928 11.2713 0.263554C11.2694 5.34546 11.2694 10.428 11.2713 15.5099C11.2713 15.7309 11.243 15.7984 11.1616 15.7954C10.8776 15.785 10.5936 15.7917 10.3094 15.7917C10.1664 15.7917 10.1664 15.7911 10.1664 15.4198C10.1664 11.9657 10.1664 8.51161 10.1664 5.05752C10.1664 4.96925 10.1664 4.88037 10.1664 4.7921C10.1623 4.79332 10.1584 4.79271 10.1545 4.7921Z"
    fill="#FF944E" />
  <path
    d="M4.81132 -0.017817C5.32486 -0.017817 5.83862 -0.0135557 6.35216 -0.0220783C6.43802 -0.0232959 6.46809 0.0430587 6.46671 0.275604C6.46235 1.01342 6.46304 1.75184 6.46648 2.48966C6.4674 2.70333 6.4433 2.78612 6.35882 2.78247C6.10354 2.7709 5.84803 2.78612 5.59276 2.77395C5.50943 2.77029 5.4844 2.84395 5.48509 3.06189C5.48854 4.05842 5.48854 5.05557 5.48509 6.0521C5.4844 6.26821 5.5092 6.34735 5.59276 6.34309C5.82806 6.33152 6.06337 6.33822 6.29867 6.34005C6.40519 6.34066 6.41391 6.36257 6.41414 6.63408C6.41483 7.35667 6.41208 8.07988 6.41575 8.80247C6.41667 9.01249 6.38866 9.08189 6.31061 9.07885C6.07255 9.06911 5.83426 9.08189 5.5962 9.07215C5.517 9.0685 5.4844 9.12389 5.48509 9.35218C5.48876 10.4632 5.48831 11.5741 5.48532 12.6851C5.48486 12.8927 5.50966 12.9664 5.58886 12.9633C5.86709 12.9542 6.14555 12.9585 6.42378 12.9609C6.52801 12.9615 6.53604 12.984 6.53627 13.2622C6.53673 14.0153 6.53443 14.7689 6.53788 15.5219C6.5388 15.7307 6.51171 15.7983 6.43343 15.7971C5.76769 15.791 5.10195 15.7892 4.43644 15.7983C4.3453 15.7995 4.32648 15.7076 4.32694 15.4897C4.32992 14.2649 4.32854 13.0394 4.32831 11.8146C4.32831 11.5005 4.32785 11.4999 4.20871 11.4993C4.05949 11.4987 3.91028 11.4987 3.76106 11.4993C3.63204 11.4993 3.63296 11.4999 3.61253 11.8414C3.53838 13.0729 3.46148 14.3032 3.39031 15.5353C3.3786 15.7399 3.34692 15.7983 3.273 15.7965C2.91144 15.7892 2.54987 15.7934 2.18831 15.7928C2.07238 15.7928 2.071 15.7874 2.09212 15.4824C2.26338 12.9834 2.43486 10.4845 2.60635 7.98552C2.78357 5.40439 2.96171 2.82386 3.13641 0.240905C3.14996 0.0400149 3.17934 -0.0226871 3.25372 -0.0214696C3.77254 -0.0147733 4.29204 -0.017817 4.81132 -0.017817ZM4.31201 5.76964C4.31201 4.82668 4.31201 3.8831 4.31201 2.94014C4.31201 2.81595 4.31615 2.68872 4.2459 2.68689C4.18369 2.68507 4.12354 2.66741 4.11574 2.903C4.10908 3.10694 4.0953 3.30965 4.08429 3.51298C3.99361 5.21385 3.90431 6.91471 3.81087 8.61437C3.80008 8.81038 3.82419 8.85665 3.89053 8.85239C3.99361 8.84508 4.09714 8.85178 4.20022 8.85056C4.30811 8.84935 4.31133 8.84082 4.31156 8.5541C4.31224 7.62574 4.31201 6.69739 4.31201 5.76964Z"
    fill="#FF944E" />
  <path
    d="M11.4738 7.88385C11.4738 5.37333 11.4738 2.86221 11.4738 0.351694C11.4738 -0.0172135 11.474 -0.0178223 11.6087 -0.0178223C12.3204 -0.0178223 13.0318 -0.0178223 13.7435 -0.0178223C13.8702 -0.0178223 13.8704 -0.0172135 13.8707 0.327952C13.8709 1.14186 13.8684 1.95638 13.8723 2.77029C13.8734 2.99248 13.8431 3.05823 13.7621 3.05579C13.4437 3.04666 13.125 3.05823 12.8066 3.04849C12.7247 3.04605 12.6964 3.11363 12.6976 3.33461C12.7015 4.16373 12.7015 4.99347 12.6976 5.8226C12.6964 6.04784 12.7274 6.10689 12.8078 6.10445C13.109 6.09471 13.4104 6.10628 13.7116 6.09654C13.7928 6.0941 13.8224 6.15924 13.8213 6.38144C13.8174 7.19535 13.8201 8.00986 13.8195 8.82377C13.8192 9.09345 13.8105 9.11537 13.7038 9.11598C13.4053 9.1178 13.1069 9.12206 12.8087 9.11293C12.7286 9.1105 12.6967 9.17198 12.6976 9.39661C12.701 10.4011 12.7008 11.4055 12.6978 12.4094C12.6971 12.6163 12.7231 12.69 12.802 12.6882C13.1434 12.6803 13.485 12.6839 13.8263 12.6851C13.9377 12.6857 13.9416 12.6967 13.9416 12.995C13.9418 13.8241 13.9418 14.6538 13.9416 15.483C13.9416 15.7867 13.9397 15.7922 13.827 15.7922C13.0809 15.7928 12.3351 15.7928 11.589 15.7922C11.4758 15.7922 11.4742 15.7874 11.4742 15.4842C11.4735 12.9511 11.4738 10.4175 11.4738 7.88385Z"
    fill="#FF944E" />
  <path
    d="M0.0250218 7.87229C0.0250218 5.36177 0.0250218 2.85125 0.0250218 0.340736C0.0250218 -0.0172135 0.0252514 -0.0178223 0.155874 -0.0178223C0.870281 -0.0178223 1.58469 -0.0178223 2.29886 -0.0178223C2.42122 -0.0178223 2.42168 -0.0166048 2.42168 0.315168C2.42191 1.1443 2.41939 1.97403 2.42329 2.80255C2.42421 3.0211 2.39712 3.09536 2.31493 3.09293C1.99079 3.0838 1.66664 3.09476 1.3425 3.08562C1.26146 3.08319 1.23116 3.14772 1.23253 3.37052C1.23713 4.00911 1.2369 4.64891 1.23253 5.2875C1.23093 5.50361 1.26146 5.55962 1.3379 5.55779C1.64208 5.54927 1.94602 5.55353 2.2502 5.55475C2.35878 5.55535 2.36613 5.57423 2.36636 5.86947C2.36682 6.68338 2.36705 7.49729 2.36636 8.31181C2.36613 8.60158 2.35855 8.62106 2.24836 8.62106C1.94717 8.62227 1.64575 8.62897 1.34479 8.6168C1.25733 8.61314 1.2323 8.6868 1.23253 8.91631C1.23529 11.092 1.23437 13.2677 1.23414 15.444C1.23414 15.7922 1.23391 15.7928 1.10008 15.7928C0.778684 15.7928 0.457293 15.7855 0.136131 15.7977C0.0482079 15.8007 0.0236444 15.7222 0.023874 15.4951C0.0259401 12.9542 0.0250218 10.4132 0.0250218 7.87229Z"
    fill="#FF944E" />
  <path
    d="M16.024 14.0591C16.024 15.1585 15.7159 15.976 15.3015 15.9754C14.8966 15.9748 14.577 15.1378 14.5763 14.0749C14.5756 12.9974 14.8968 12.1354 15.299 12.1354C15.7072 12.136 16.024 12.9767 16.024 14.0591Z"
    fill="#FF944E" />
</svg>
