<svg width="24" height="24" viewBox="0 0 24 24" fill="none" xmlns="http://www.w3.org/2000/svg">
<path d="M6.768 9.20167C6.51679 8.52527 5.47711 8.53731 5.24156 9.21911L3.27956 14.3705C2.95607 15.2316 4.263 15.7286 4.5937 14.871L4.90987 14.0409H7.09153L7.40404 14.869C7.73732 15.731 9.03979 15.2309 8.71973 14.3725L6.77559 9.22084C6.77319 9.2144 6.77066 9.20801 6.768 9.20167ZM5.44547 12.6347L6.00571 11.1637L6.56086 12.6347H5.44547ZM20.0617 10.1228C20.45 10.1228 20.7648 9.80795 20.7648 9.41964C20.7648 9.03133 20.45 8.71652 20.0617 8.71652H17.8801C17.4918 8.71652 17.177 9.03133 17.177 9.41964V14.5969C17.177 14.9853 17.4918 15.3001 17.8801 15.3001H20.0617C20.45 15.3001 20.7648 14.9853 20.7648 14.5969C20.7648 14.2086 20.45 13.8938 20.0617 13.8938H18.5833V12.7114H19.9008C20.2891 12.7114 20.6039 12.3966 20.6039 12.0083C20.6039 11.62 20.2891 11.3051 19.9008 11.3051H18.5833V10.1228H20.0617ZM12.87 10.0826C13.2527 10.0826 13.6217 10.1952 13.9371 10.4083C14.2589 10.6256 14.6959 10.5411 14.9133 10.2193C15.1307 9.89753 15.0461 9.46047 14.7243 9.24306C14.1756 8.87233 13.5344 8.67639 12.87 8.67639C11.0417 8.67639 9.55439 10.1638 9.55439 11.992C9.55439 13.8202 11.0417 15.3076 12.87 15.3076C14.6118 15.3076 15.8283 13.9442 15.8283 11.992C15.8283 11.6037 15.5135 11.2889 15.1252 11.2889H13.5622C13.1738 11.2889 12.859 11.6037 12.859 11.992C12.859 12.3803 13.1738 12.6951 13.5622 12.6951H14.332C14.1576 13.342 13.7148 13.9014 12.87 13.9014C11.8171 13.9014 10.9606 13.0448 10.9606 11.992C10.9606 10.9391 11.8171 10.0826 12.87 10.0826Z" fill="#F5F5F5"/>
<path d="M23.2969 11.2969C22.9086 11.2969 22.5938 11.6117 22.5938 12C22.5938 14.8297 21.4918 17.49 19.4909 19.4909C17.49 21.4918 14.8297 22.5938 12 22.5938C9.17034 22.5938 6.51 21.4918 4.50909 19.4909C2.50819 17.49 1.40625 14.8297 1.40625 12C1.40625 9.1703 2.50819 6.51 4.50909 4.50909C6.51 2.50819 9.17034 1.40625 12 1.40625C13.419 1.40625 14.7957 1.68183 16.0918 2.22539C16.8319 2.53576 17.5343 2.92954 18.1852 3.39909L17.2531 3.51652C16.3384 3.63637 16.5202 5.02458 17.4289 4.91175L19.9443 4.59488C20.3186 4.56389 20.6161 4.20638 20.5768 3.83255L20.3527 1.3087C20.3183 0.921891 19.9768 0.636 19.5901 0.6705C19.2033 0.704859 18.9176 1.0463 18.9519 1.43306L19.0264 2.27189C18.2836 1.7339 17.4813 1.28314 16.6355 0.9285C15.1664 0.312375 13.6068 0 12 0C8.79469 0 5.78123 1.24823 3.51473 3.51473C1.24823 5.78123 0 8.79469 0 12C0 15.2053 1.24823 18.2188 3.51473 20.4853C5.78123 22.7518 8.79469 24 12 24C15.2053 24 18.2188 22.7518 20.4853 20.4853C22.7518 18.2188 24 15.2053 24 12C24 11.6117 23.6852 11.2969 23.2969 11.2969Z" fill="#F5F5F5"/>
</svg>
