<svg width="26" height="26" viewBox="0 0 26 26" fill="none" xmlns="http://www.w3.org/2000/svg">
<path fill-rule="evenodd" clip-rule="evenodd" d="M22.187 8.99271C22.7388 10.2565 23.0228 11.6209 23.0212 13C23.0212 18.5304 18.5307 23.0208 13.0003 23.0208C7.46991 23.0208 2.97949 18.5304 2.97949 13C2.97949 7.46954 7.46991 2.97913 13.0003 2.97913C13.2158 2.97913 13.4225 2.89352 13.5749 2.74115C13.7272 2.58878 13.8128 2.38211 13.8128 2.16663C13.8128 1.95114 13.7272 1.74448 13.5749 1.5921C13.4225 1.43973 13.2158 1.35413 13.0003 1.35413C6.57291 1.35413 1.35449 6.57254 1.35449 13C1.35449 19.4274 6.57291 24.6458 13.0003 24.6458C19.4277 24.6458 24.6462 19.4274 24.6462 13C24.6462 11.3435 24.2995 9.76838 23.6755 8.34054C23.589 8.14316 23.4277 7.98821 23.2269 7.90979C23.0262 7.83137 22.8025 7.83589 22.6052 7.92238C22.4078 8.00886 22.2528 8.17021 22.1744 8.37094C22.096 8.57166 22.1005 8.79532 22.187 8.99271Z" fill="#F5F5F5"/>
<path fill-rule="evenodd" clip-rule="evenodd" d="M18.4167 1.35413C17.4278 1.35441 16.4796 1.74736 15.7803 2.44659C15.0811 3.14582 14.6882 4.0941 14.6879 5.08296C14.6879 5.72646 14.9793 6.50971 15.43 7.27454C16.3345 8.81396 17.8425 10.3241 17.8425 10.3241C17.9179 10.3996 18.0074 10.4595 18.1059 10.5003C18.2044 10.5412 18.31 10.5622 18.4167 10.5622C18.5234 10.5622 18.629 10.5412 18.7275 10.5003C18.826 10.4595 18.9155 10.3996 18.9909 10.3241C18.9909 10.3241 20.4989 8.81396 21.4035 7.27454C21.8541 6.50971 22.1455 5.72646 22.1455 5.08296C22.1455 3.02463 20.475 1.35413 18.4167 1.35413ZM18.4167 2.97913C19.578 2.97913 20.5205 3.92163 20.5205 5.08296C20.5205 5.65496 20.0948 6.35804 19.6376 7.02104C19.2614 7.55746 18.8537 8.07114 18.4167 8.55938C18.0646 8.16288 17.6042 7.61254 17.1958 7.02104C16.7386 6.35804 16.3129 5.65496 16.3129 5.08296C16.3129 3.92163 17.2554 2.97913 18.4167 2.97913ZM1.73662 13.689L5.27912 15.9033C5.92479 16.3063 6.6712 16.5208 7.4317 16.5208H8.25504C8.96679 16.5208 9.64279 16.8317 10.1065 17.3723L11.245 18.7015C11.5074 19.0074 11.6898 19.3735 11.776 19.7671C11.8623 20.1607 11.8495 20.5695 11.739 20.957L11.1356 23.0685C11.0813 23.2741 11.1097 23.4928 11.2149 23.6777C11.32 23.8626 11.4934 23.9989 11.6979 24.0573C11.9024 24.1157 12.1217 24.0917 12.3086 23.9902C12.4956 23.8888 12.6353 23.7181 12.6978 23.5148L13.3012 21.4034C13.4857 20.7577 13.5072 20.0763 13.3637 19.4202C13.2202 18.7641 12.9162 18.1539 12.479 17.6442L11.3393 16.315C10.9582 15.8697 10.4851 15.5123 9.9527 15.2673C9.42028 15.0224 8.84111 14.8956 8.25504 14.8958H7.4317C6.97562 14.8958 6.5282 14.768 6.14037 14.5253L2.59679 12.311C2.50629 12.2511 2.40472 12.2099 2.29806 12.19C2.19141 12.17 2.08183 12.1716 1.9758 12.1946C1.86976 12.2177 1.76942 12.2617 1.6807 12.3242C1.59197 12.3867 1.51665 12.4663 1.4592 12.5583C1.40174 12.6504 1.3633 12.753 1.34615 12.8601C1.329 12.9673 1.33349 13.0768 1.35934 13.1822C1.3852 13.2876 1.43191 13.3867 1.49671 13.4737C1.5615 13.5608 1.64308 13.634 1.73662 13.689Z" fill="#F5F5F5"/>
<path fill-rule="evenodd" clip-rule="evenodd" d="M5.77298 4.69621L7.50198 8.15421C7.69103 8.53268 7.95858 8.86651 8.28679 9.13345C8.615 9.40039 8.99634 9.59431 9.40539 9.70229L11.3099 10.206C11.7898 10.3328 12.1614 10.712 12.2784 11.194L13.0941 14.5383C13.271 15.2642 13.7141 15.8972 14.3356 16.3117L14.8405 16.6475C15.1917 16.8825 15.589 17.04 16.0059 17.1095C16.4228 17.1789 16.8496 17.1588 17.2581 17.0503C17.6666 16.9419 18.0472 16.7476 18.3748 16.4805C18.7023 16.2135 18.9691 15.8797 19.1576 15.5014L19.7805 14.2545C19.8679 14.0799 19.9921 13.9262 20.1445 13.8041C20.2969 13.682 20.4739 13.5943 20.6634 13.547L23.687 12.7909C23.8933 12.7361 24.0697 12.6023 24.1781 12.4184C24.2866 12.2346 24.3183 12.0155 24.2665 11.8084C24.2147 11.6014 24.0835 11.423 23.9013 11.3119C23.7191 11.2008 23.5004 11.1658 23.2926 11.2146L20.2691 11.9697C19.8523 12.0742 19.4631 12.2674 19.128 12.5363C18.793 12.8052 18.52 13.1433 18.3277 13.5275L17.7037 14.7745C17.6184 14.9466 17.4972 15.0986 17.3484 15.2202C17.1996 15.3418 17.0266 15.4302 16.8408 15.4795C16.6551 15.5289 16.461 15.538 16.2715 15.5062C16.0819 15.4745 15.9013 15.4027 15.7418 15.2955L15.237 14.9597C14.9544 14.7713 14.753 14.4836 14.6726 14.1537L13.8579 10.8095C13.7309 10.2887 13.4656 9.81179 13.0902 9.42912C12.7148 9.04646 12.2431 8.77218 11.7248 8.63521L9.82031 8.13146C9.6344 8.08237 9.46111 7.99416 9.31202 7.87272C9.16294 7.75129 9.04149 7.59943 8.95581 7.42729L7.22681 3.97037C7.17966 3.87406 7.11391 3.78804 7.03336 3.71726C6.9528 3.64649 6.85903 3.59236 6.75746 3.55799C6.65588 3.52363 6.54851 3.50971 6.44153 3.51704C6.33455 3.52437 6.23008 3.5528 6.13414 3.6007C6.0382 3.6486 5.9527 3.71501 5.88255 3.79611C5.8124 3.87722 5.759 3.9714 5.72542 4.07324C5.69185 4.17508 5.67877 4.28256 5.68693 4.38948C5.69509 4.4964 5.72433 4.60064 5.77298 4.69621Z" fill="#F5F5F5"/>
</svg>
