<svg width="26" height="26" viewBox="0 0 26 26" fill="none" xmlns="http://www.w3.org/2000/svg">
<path fill-rule="evenodd" clip-rule="evenodd" d="M12.4577 21.9515H3.19518C3.13772 21.9515 3.08261 21.9287 3.04198 21.8881C3.00134 21.8475 2.97852 21.7923 2.97852 21.7349V20.163C2.97852 19.2638 3.62093 18.4708 4.6111 17.797C6.3791 16.5901 9.24018 15.8296 12.4577 15.8296C12.6732 15.8296 12.8798 15.744 13.0322 15.5917C13.1846 15.4393 13.2702 15.2326 13.2702 15.0171C13.2702 14.8016 13.1846 14.595 13.0322 14.4426C12.8798 14.2902 12.6732 14.2046 12.4577 14.2046C8.85885 14.2046 5.67277 15.1049 3.6946 16.4536C2.18552 17.4828 1.35352 18.7904 1.35352 20.163V21.7349C1.35352 22.2233 1.54755 22.6918 1.89293 23.0371C2.23831 23.3825 2.70674 23.5765 3.19518 23.5765H12.4577C12.6732 23.5765 12.8798 23.4909 13.0322 23.3386C13.1846 23.1862 13.2702 22.9795 13.2702 22.764C13.2702 22.5486 13.1846 22.3419 13.0322 22.1895C12.8798 22.0371 12.6732 21.9515 12.4577 21.9515ZM12.4577 1.35413C9.16868 1.35413 6.49935 4.02346 6.49935 7.31246C6.49935 10.6015 9.16868 13.2708 12.4577 13.2708C15.7467 13.2708 18.416 10.6015 18.416 7.31246C18.416 4.02346 15.7467 1.35413 12.4577 1.35413ZM12.4577 2.97913C14.8497 2.97913 16.791 4.92046 16.791 7.31246C16.791 9.70446 14.8497 11.6458 12.4577 11.6458C10.0657 11.6458 8.12435 9.70446 8.12435 7.31246C8.12435 4.92046 10.0657 2.97913 12.4577 2.97913Z" fill="#F5F5F5"/>
<path fill-rule="evenodd" clip-rule="evenodd" d="M18.958 13.2708C15.8185 13.2708 13.2705 15.8188 13.2705 18.9583C13.2705 22.0978 15.8185 24.6458 18.958 24.6458C22.0975 24.6458 24.6455 22.0978 24.6455 18.9583C24.6455 15.8188 22.0975 13.2708 18.958 13.2708ZM18.958 14.8958C21.2005 14.8958 23.0205 16.7158 23.0205 18.9583C23.0205 21.2008 21.2005 23.0208 18.958 23.0208C16.7155 23.0208 14.8955 21.2008 14.8955 18.9583C14.8955 16.7158 16.7155 14.8958 18.958 14.8958Z" fill="#F5F5F5"/>
<path fill-rule="evenodd" clip-rule="evenodd" d="M16.3407 19.9051L17.9657 20.9884C18.122 21.0925 18.3095 21.1392 18.4963 21.1206C18.6832 21.1021 18.8578 21.0194 18.9906 20.8866L21.6989 18.1783C21.8512 18.026 21.9367 17.8195 21.9367 17.6041C21.9367 17.3888 21.8512 17.1822 21.6989 17.0299C21.5466 16.8777 21.3401 16.7921 21.1247 16.7921C20.9094 16.7921 20.7028 16.8777 20.5506 17.0299L18.3124 19.267L17.2421 18.5531C17.0628 18.4364 16.8447 18.3951 16.6351 18.4382C16.4256 18.4813 16.2415 18.6054 16.1228 18.7834C16.0041 18.9614 15.9604 19.179 16.0012 19.389C16.042 19.599 16.164 19.7845 16.3407 19.9051Z" fill="#F5F5F5"/>
</svg>
