<svg width="26" height="26" viewBox="0 0 26 26" fill="none" xmlns="http://www.w3.org/2000/svg">
<path fill-rule="evenodd" clip-rule="evenodd" d="M12.1875 5.6875C10.7868 5.6875 9.44352 6.24392 8.45309 7.23434C7.46267 8.22477 6.90625 9.56808 6.90625 10.9688C6.90625 12.3694 7.46267 13.7127 8.45309 14.7032C9.44352 15.6936 10.7868 16.25 12.1875 16.25C13.5882 16.25 14.9315 15.6936 15.9219 14.7032C16.9123 13.7127 17.4688 12.3694 17.4688 10.9688C17.4688 9.56808 16.9123 8.22477 15.9219 7.23434C14.9315 6.24392 13.5882 5.6875 12.1875 5.6875ZM5.28125 10.9688C5.28125 9.1371 6.00887 7.38047 7.30404 6.08529C8.59922 4.79012 10.3558 4.0625 12.1875 4.0625C14.0192 4.0625 15.7758 4.79012 17.071 6.08529C18.3661 7.38047 19.0938 9.1371 19.0938 10.9688C19.0938 12.8004 18.3661 14.557 17.071 15.8522C15.7758 17.1474 14.0192 17.875 12.1875 17.875C10.3558 17.875 8.59922 17.1474 7.30404 15.8522C6.00887 14.557 5.28125 12.8004 5.28125 10.9688Z" fill="#F5F5F5"/>
<path fill-rule="evenodd" clip-rule="evenodd" d="M12.1875 16.25C12.403 16.25 12.6097 16.3356 12.762 16.488C12.9144 16.6403 13 16.847 13 17.0625V23.5625C13 23.778 12.9144 23.9847 12.762 24.137C12.6097 24.2894 12.403 24.375 12.1875 24.375C11.972 24.375 11.7653 24.2894 11.613 24.137C11.4606 23.9847 11.375 23.778 11.375 23.5625V17.0625C11.375 16.847 11.4606 16.6403 11.613 16.488C11.7653 16.3356 11.972 16.25 12.1875 16.25Z" fill="#F5F5F5"/>
<path fill-rule="evenodd" clip-rule="evenodd" d="M8.125 20.7188C8.125 20.5033 8.2106 20.2966 8.36298 20.1442C8.51535 19.9919 8.72201 19.9062 8.9375 19.9062H15.4375C15.653 19.9062 15.8597 19.9919 16.012 20.1442C16.1644 20.2966 16.25 20.5033 16.25 20.7188C16.25 20.9342 16.1644 21.1409 16.012 21.2933C15.8597 21.4456 15.653 21.5312 15.4375 21.5312H8.9375C8.72201 21.5312 8.51535 21.4456 8.36298 21.2933C8.2106 21.1409 8.125 20.9342 8.125 20.7188ZM16.25 2.4375C16.25 2.22201 16.3356 2.01535 16.488 1.86298C16.6403 1.7106 16.847 1.625 17.0625 1.625H21.125C21.3405 1.625 21.5472 1.7106 21.6995 1.86298C21.8519 2.01535 21.9375 2.22201 21.9375 2.4375V6.5C21.9375 6.71549 21.8519 6.92215 21.6995 7.07452C21.5472 7.2269 21.3405 7.3125 21.125 7.3125C20.9095 7.3125 20.7028 7.2269 20.5505 7.07452C20.3981 6.92215 20.3125 6.71549 20.3125 6.5V3.25H17.0625C16.847 3.25 16.6403 3.1644 16.488 3.01202C16.3356 2.85965 16.25 2.65299 16.25 2.4375Z" fill="#F5F5F5"/>
<path fill-rule="evenodd" clip-rule="evenodd" d="M21.6991 1.86301C21.8514 2.01538 21.937 2.222 21.937 2.43745C21.937 2.65289 21.8514 2.85952 21.6991 3.01189L17.2709 7.44001C17.196 7.51761 17.1063 7.57951 17.0072 7.62209C16.9081 7.66468 16.8015 7.68709 16.6936 7.68803C16.5857 7.68896 16.4787 7.66841 16.3789 7.62755C16.279 7.5867 16.1883 7.52637 16.112 7.45008C16.0357 7.37379 15.9754 7.28308 15.9345 7.18322C15.8937 7.08337 15.8731 6.97638 15.8741 6.8685C15.875 6.76061 15.8974 6.654 15.94 6.55487C15.9826 6.45574 16.0445 6.36609 16.1221 6.29114L20.5502 1.86301C20.7026 1.71069 20.9092 1.62512 21.1246 1.62512C21.3401 1.62512 21.5467 1.71069 21.6991 1.86301Z" fill="#F5F5F5"/>
</svg>
