<svg width="62" height="62" viewBox="0 0 62 62" fill="none" xmlns="http://www.w3.org/2000/svg">
  <path
    d="M31.5703 4.85645C24.5408 4.85645 23.6569 4.88407 20.8948 5.01526C18.1397 5.13956 16.2545 5.57459 14.6111 6.21677C12.9055 6.87967 11.4623 7.76353 10.0261 9.19981C8.58287 10.6361 7.699 12.0793 7.0361 13.7849C6.39392 15.4283 5.95889 17.3134 5.8346 20.0617C5.71031 22.8238 5.67578 23.7076 5.67578 30.7302C5.67578 37.7597 5.71031 38.6367 5.8346 41.3987C5.95889 44.1539 6.40083 46.0321 7.0361 47.6755C7.699 49.3742 8.58287 50.8243 10.0261 52.2606C11.4623 53.6969 12.9124 54.5877 14.6111 55.2436C16.2614 55.8858 18.1397 56.3209 20.8948 56.4451C23.6569 56.5694 24.5408 56.604 31.5703 56.604C38.6067 56.604 39.4836 56.5763 42.2457 56.4451C45.0009 56.3209 46.886 55.8858 48.5363 55.2436C50.2419 54.5807 51.6782 53.6969 53.1214 52.2606C54.5646 50.8243 55.4484 49.3811 56.1113 47.6755C56.7466 46.0321 57.1816 44.147 57.3128 41.3987C57.4371 38.6367 57.4716 37.7597 57.4716 30.7302C57.4716 23.7007 57.4371 22.8238 57.3128 20.0617C57.1816 17.3065 56.7466 15.4283 56.1113 13.7849C55.4484 12.0862 54.5646 10.6361 53.1214 9.19981C51.6782 7.76353 50.2419 6.87967 48.5363 6.21677C46.886 5.57459 45.0009 5.13956 42.2457 5.01526C39.4836 4.89097 38.6067 4.85645 31.5703 4.85645ZM29.2432 9.52436C29.9337 9.52436 30.7002 9.52436 31.5634 9.52436C38.4755 9.52436 39.2972 9.55198 42.0247 9.67627C44.552 9.79366 45.9193 10.2149 46.8307 10.567C48.0392 11.0366 48.9023 11.5959 49.8069 12.5005C50.7115 13.4051 51.2777 14.2682 51.7472 15.4766C52.0994 16.3881 52.5275 17.7553 52.638 20.2826C52.7623 23.0102 52.7899 23.8319 52.7899 30.7371C52.7899 37.6423 52.7623 38.464 52.638 41.1916C52.5206 43.712 52.0994 45.0861 51.7472 45.9976C51.2777 47.206 50.7184 48.0622 49.8069 48.9668C48.9023 49.8714 48.0392 50.4307 46.8307 50.9003C45.9193 51.2593 44.5451 51.6737 42.0247 51.791C39.2972 51.9153 38.4755 51.943 31.5634 51.943C24.6513 51.943 23.8295 51.9153 21.102 51.791C18.5747 51.6737 17.2075 51.2524 16.296 50.9003C15.0876 50.4307 14.2244 49.8714 13.3198 48.9668C12.4153 48.0622 11.849 47.1991 11.3795 45.9907C11.0273 45.0792 10.5992 43.712 10.4887 41.1847C10.3644 38.4571 10.3368 37.6354 10.3368 30.7302C10.3368 23.8181 10.3644 23.0033 10.4887 20.2757C10.6061 17.7553 11.0273 16.3812 11.3795 15.4697C11.849 14.2613 12.4083 13.3982 13.3198 12.4936C14.2244 11.589 15.0876 11.0297 16.296 10.5601C17.2075 10.2011 18.5816 9.78675 21.102 9.66937C23.4912 9.55198 24.4234 9.51745 29.2432 9.52436ZM45.3945 13.8194C43.682 13.8194 42.2871 15.2073 42.2871 16.9267C42.2871 18.6392 43.682 20.0341 45.3945 20.0341C47.1069 20.0341 48.5018 18.6461 48.5018 16.9267C48.5018 15.2073 47.1069 13.8194 45.3945 13.8194ZM31.5703 17.4446C24.2231 17.4446 18.2709 23.3969 18.2709 30.7302C18.2709 38.0704 24.2231 44.0158 31.5703 44.0158C38.9174 44.0158 44.8628 38.0704 44.8628 30.7302C44.8628 23.3969 38.9105 17.4446 31.5703 17.4446ZM31.5703 22.1125C36.3348 22.1125 40.2018 25.9725 40.2018 30.7371C40.2018 35.5017 36.3348 39.3617 31.5703 39.3617C26.8057 39.3617 22.9388 35.5017 22.9388 30.7371C22.9388 25.9725 26.7988 22.1125 31.5703 22.1125Z"
    fill="url(#paint0_radial_2183_5829)" />
  <path
    d="M31.5703 4.85645C24.5408 4.85645 23.6569 4.88407 20.8948 5.01526C18.1397 5.13956 16.2545 5.57459 14.6111 6.21677C12.9055 6.87967 11.4623 7.76353 10.0261 9.19981C8.58287 10.6361 7.699 12.0793 7.0361 13.7849C6.39392 15.4283 5.95889 17.3134 5.8346 20.0617C5.71031 22.8238 5.67578 23.7076 5.67578 30.7302C5.67578 37.7597 5.71031 38.6367 5.8346 41.3987C5.95889 44.1539 6.40083 46.0321 7.0361 47.6755C7.699 49.3742 8.58287 50.8243 10.0261 52.2606C11.4623 53.6969 12.9124 54.5877 14.6111 55.2436C16.2614 55.8858 18.1397 56.3209 20.8948 56.4451C23.6569 56.5694 24.5408 56.604 31.5703 56.604C38.6067 56.604 39.4836 56.5763 42.2457 56.4451C45.0009 56.3209 46.886 55.8858 48.5363 55.2436C50.2419 54.5807 51.6782 53.6969 53.1214 52.2606C54.5646 50.8243 55.4484 49.3811 56.1113 47.6755C56.7466 46.0321 57.1816 44.147 57.3128 41.3987C57.4371 38.6367 57.4716 37.7597 57.4716 30.7302C57.4716 23.7007 57.4371 22.8238 57.3128 20.0617C57.1816 17.3065 56.7466 15.4283 56.1113 13.7849C55.4484 12.0862 54.5646 10.6361 53.1214 9.19981C51.6782 7.76353 50.2419 6.87967 48.5363 6.21677C46.886 5.57459 45.0009 5.13956 42.2457 5.01526C39.4836 4.89097 38.6067 4.85645 31.5703 4.85645ZM29.2432 9.52436C29.9337 9.52436 30.7002 9.52436 31.5634 9.52436C38.4755 9.52436 39.2972 9.55198 42.0247 9.67627C44.552 9.79366 45.9193 10.2149 46.8307 10.567C48.0392 11.0366 48.9023 11.5959 49.8069 12.5005C50.7115 13.4051 51.2777 14.2682 51.7472 15.4766C52.0994 16.3881 52.5275 17.7553 52.638 20.2826C52.7623 23.0102 52.7899 23.8319 52.7899 30.7371C52.7899 37.6423 52.7623 38.464 52.638 41.1916C52.5206 43.712 52.0994 45.0861 51.7472 45.9976C51.2777 47.206 50.7184 48.0622 49.8069 48.9668C48.9023 49.8714 48.0392 50.4307 46.8307 50.9003C45.9193 51.2593 44.5451 51.6737 42.0247 51.791C39.2972 51.9153 38.4755 51.943 31.5634 51.943C24.6513 51.943 23.8295 51.9153 21.102 51.791C18.5747 51.6737 17.2075 51.2524 16.296 50.9003C15.0876 50.4307 14.2244 49.8714 13.3198 48.9668C12.4153 48.0622 11.849 47.1991 11.3795 45.9907C11.0273 45.0792 10.5992 43.712 10.4887 41.1847C10.3644 38.4571 10.3368 37.6354 10.3368 30.7302C10.3368 23.8181 10.3644 23.0033 10.4887 20.2757C10.6061 17.7553 11.0273 16.3812 11.3795 15.4697C11.849 14.2613 12.4083 13.3982 13.3198 12.4936C14.2244 11.589 15.0876 11.0297 16.296 10.5601C17.2075 10.2011 18.5816 9.78675 21.102 9.66937C23.4912 9.55198 24.4234 9.51745 29.2432 9.52436ZM45.3945 13.8194C43.682 13.8194 42.2871 15.2073 42.2871 16.9267C42.2871 18.6392 43.682 20.0341 45.3945 20.0341C47.1069 20.0341 48.5018 18.6461 48.5018 16.9267C48.5018 15.2073 47.1069 13.8194 45.3945 13.8194ZM31.5703 17.4446C24.2231 17.4446 18.2709 23.3969 18.2709 30.7302C18.2709 38.0704 24.2231 44.0158 31.5703 44.0158C38.9174 44.0158 44.8628 38.0704 44.8628 30.7302C44.8628 23.3969 38.9105 17.4446 31.5703 17.4446ZM31.5703 22.1125C36.3348 22.1125 40.2018 25.9725 40.2018 30.7371C40.2018 35.5017 36.3348 39.3617 31.5703 39.3617C26.8057 39.3617 22.9388 35.5017 22.9388 30.7371C22.9388 25.9725 26.7988 22.1125 31.5703 22.1125Z"
    fill="url(#paint1_radial_2183_5829)" />
  <path
    d="M31.5703 4.85645C24.5408 4.85645 23.6569 4.88407 20.8948 5.01526C18.1397 5.13956 16.2545 5.57459 14.6111 6.21677C12.9055 6.87967 11.4623 7.76353 10.0261 9.19981C8.58287 10.6361 7.699 12.0793 7.0361 13.7849C6.39392 15.4283 5.95889 17.3134 5.8346 20.0617C5.71031 22.8238 5.67578 23.7076 5.67578 30.7302C5.67578 37.7597 5.71031 38.6367 5.8346 41.3987C5.95889 44.1539 6.40083 46.0321 7.0361 47.6755C7.699 49.3742 8.58287 50.8243 10.0261 52.2606C11.4623 53.6969 12.9124 54.5877 14.6111 55.2436C16.2614 55.8858 18.1397 56.3209 20.8948 56.4451C23.6569 56.5694 24.5408 56.604 31.5703 56.604C38.6067 56.604 39.4836 56.5763 42.2457 56.4451C45.0009 56.3209 46.886 55.8858 48.5363 55.2436C50.2419 54.5807 51.6782 53.6969 53.1214 52.2606C54.5646 50.8243 55.4484 49.3811 56.1113 47.6755C56.7466 46.0321 57.1816 44.147 57.3128 41.3987C57.4371 38.6367 57.4716 37.7597 57.4716 30.7302C57.4716 23.7007 57.4371 22.8238 57.3128 20.0617C57.1816 17.3065 56.7466 15.4283 56.1113 13.7849C55.4484 12.0862 54.5646 10.6361 53.1214 9.19981C51.6782 7.76353 50.2419 6.87967 48.5363 6.21677C46.886 5.57459 45.0009 5.13956 42.2457 5.01526C39.4836 4.89097 38.6067 4.85645 31.5703 4.85645ZM29.2432 9.52436C29.9337 9.52436 30.7002 9.52436 31.5634 9.52436C38.4755 9.52436 39.2972 9.55198 42.0247 9.67627C44.552 9.79366 45.9193 10.2149 46.8307 10.567C48.0392 11.0366 48.9023 11.5959 49.8069 12.5005C50.7115 13.4051 51.2777 14.2682 51.7472 15.4766C52.0994 16.3881 52.5275 17.7553 52.638 20.2826C52.7623 23.0102 52.7899 23.8319 52.7899 30.7371C52.7899 37.6423 52.7623 38.464 52.638 41.1916C52.5206 43.712 52.0994 45.0861 51.7472 45.9976C51.2777 47.206 50.7184 48.0622 49.8069 48.9668C48.9023 49.8714 48.0392 50.4307 46.8307 50.9003C45.9193 51.2593 44.5451 51.6737 42.0247 51.791C39.2972 51.9153 38.4755 51.943 31.5634 51.943C24.6513 51.943 23.8295 51.9153 21.102 51.791C18.5747 51.6737 17.2075 51.2524 16.296 50.9003C15.0876 50.4307 14.2244 49.8714 13.3198 48.9668C12.4153 48.0622 11.849 47.1991 11.3795 45.9907C11.0273 45.0792 10.5992 43.712 10.4887 41.1847C10.3644 38.4571 10.3368 37.6354 10.3368 30.7302C10.3368 23.8181 10.3644 23.0033 10.4887 20.2757C10.6061 17.7553 11.0273 16.3812 11.3795 15.4697C11.849 14.2613 12.4083 13.3982 13.3198 12.4936C14.2244 11.589 15.0876 11.0297 16.296 10.5601C17.2075 10.2011 18.5816 9.78675 21.102 9.66937C23.4912 9.55198 24.4234 9.51745 29.2432 9.52436ZM45.3945 13.8194C43.682 13.8194 42.2871 15.2073 42.2871 16.9267C42.2871 18.6392 43.682 20.0341 45.3945 20.0341C47.1069 20.0341 48.5018 18.6461 48.5018 16.9267C48.5018 15.2073 47.1069 13.8194 45.3945 13.8194ZM31.5703 17.4446C24.2231 17.4446 18.2709 23.3969 18.2709 30.7302C18.2709 38.0704 24.2231 44.0158 31.5703 44.0158C38.9174 44.0158 44.8628 38.0704 44.8628 30.7302C44.8628 23.3969 38.9105 17.4446 31.5703 17.4446ZM31.5703 22.1125C36.3348 22.1125 40.2018 25.9725 40.2018 30.7371C40.2018 35.5017 36.3348 39.3617 31.5703 39.3617C26.8057 39.3617 22.9388 35.5017 22.9388 30.7371C22.9388 25.9725 26.7988 22.1125 31.5703 22.1125Z"
    fill="url(#paint2_radial_2183_5829)" />
  <path
    d="M31.5703 4.85645C24.5408 4.85645 23.6569 4.88407 20.8948 5.01526C18.1397 5.13956 16.2545 5.57459 14.6111 6.21677C12.9055 6.87967 11.4623 7.76353 10.0261 9.19981C8.58287 10.6361 7.699 12.0793 7.0361 13.7849C6.39392 15.4283 5.95889 17.3134 5.8346 20.0617C5.71031 22.8238 5.67578 23.7076 5.67578 30.7302C5.67578 37.7597 5.71031 38.6367 5.8346 41.3987C5.95889 44.1539 6.40083 46.0321 7.0361 47.6755C7.699 49.3742 8.58287 50.8243 10.0261 52.2606C11.4623 53.6969 12.9124 54.5877 14.6111 55.2436C16.2614 55.8858 18.1397 56.3209 20.8948 56.4451C23.6569 56.5694 24.5408 56.604 31.5703 56.604C38.6067 56.604 39.4836 56.5763 42.2457 56.4451C45.0009 56.3209 46.886 55.8858 48.5363 55.2436C50.2419 54.5807 51.6782 53.6969 53.1214 52.2606C54.5646 50.8243 55.4484 49.3811 56.1113 47.6755C56.7466 46.0321 57.1816 44.147 57.3128 41.3987C57.4371 38.6367 57.4716 37.7597 57.4716 30.7302C57.4716 23.7007 57.4371 22.8238 57.3128 20.0617C57.1816 17.3065 56.7466 15.4283 56.1113 13.7849C55.4484 12.0862 54.5646 10.6361 53.1214 9.19981C51.6782 7.76353 50.2419 6.87967 48.5363 6.21677C46.886 5.57459 45.0009 5.13956 42.2457 5.01526C39.4836 4.89097 38.6067 4.85645 31.5703 4.85645ZM29.2432 9.52436C29.9337 9.52436 30.7002 9.52436 31.5634 9.52436C38.4755 9.52436 39.2972 9.55198 42.0247 9.67627C44.552 9.79366 45.9193 10.2149 46.8307 10.567C48.0392 11.0366 48.9023 11.5959 49.8069 12.5005C50.7115 13.4051 51.2777 14.2682 51.7472 15.4766C52.0994 16.3881 52.5275 17.7553 52.638 20.2826C52.7623 23.0102 52.7899 23.8319 52.7899 30.7371C52.7899 37.6423 52.7623 38.464 52.638 41.1916C52.5206 43.712 52.0994 45.0861 51.7472 45.9976C51.2777 47.206 50.7184 48.0622 49.8069 48.9668C48.9023 49.8714 48.0392 50.4307 46.8307 50.9003C45.9193 51.2593 44.5451 51.6737 42.0247 51.791C39.2972 51.9153 38.4755 51.943 31.5634 51.943C24.6513 51.943 23.8295 51.9153 21.102 51.791C18.5747 51.6737 17.2075 51.2524 16.296 50.9003C15.0876 50.4307 14.2244 49.8714 13.3198 48.9668C12.4153 48.0622 11.849 47.1991 11.3795 45.9907C11.0273 45.0792 10.5992 43.712 10.4887 41.1847C10.3644 38.4571 10.3368 37.6354 10.3368 30.7302C10.3368 23.8181 10.3644 23.0033 10.4887 20.2757C10.6061 17.7553 11.0273 16.3812 11.3795 15.4697C11.849 14.2613 12.4083 13.3982 13.3198 12.4936C14.2244 11.589 15.0876 11.0297 16.296 10.5601C17.2075 10.2011 18.5816 9.78675 21.102 9.66937C23.4912 9.55198 24.4234 9.51745 29.2432 9.52436ZM45.3945 13.8194C43.682 13.8194 42.2871 15.2073 42.2871 16.9267C42.2871 18.6392 43.682 20.0341 45.3945 20.0341C47.1069 20.0341 48.5018 18.6461 48.5018 16.9267C48.5018 15.2073 47.1069 13.8194 45.3945 13.8194ZM31.5703 17.4446C24.2231 17.4446 18.2709 23.3969 18.2709 30.7302C18.2709 38.0704 24.2231 44.0158 31.5703 44.0158C38.9174 44.0158 44.8628 38.0704 44.8628 30.7302C44.8628 23.3969 38.9105 17.4446 31.5703 17.4446ZM31.5703 22.1125C36.3348 22.1125 40.2018 25.9725 40.2018 30.7371C40.2018 35.5017 36.3348 39.3617 31.5703 39.3617C26.8057 39.3617 22.9388 35.5017 22.9388 30.7371C22.9388 25.9725 26.7988 22.1125 31.5703 22.1125Z"
    fill="url(#paint3_radial_2183_5829)" />
  <defs>
    <radialGradient
      id="paint0_radial_2183_5829"
      cx="0"
      cy="0"
      r="1"
      gradientUnits="userSpaceOnUse"
      gradientTransform="translate(55.7897 29.1341) rotate(164.251) scale(33.0905 23.8404)">
      <stop stop-color="#FF005F" />
      <stop offset="1" stop-color="#FC01D8" />
    </radialGradient>
    <radialGradient
      id="paint1_radial_2183_5829"
      cx="0"
      cy="0"
      r="1"
      gradientUnits="userSpaceOnUse"
      gradientTransform="translate(19.428 60.637) rotate(-90) scale(41.3386 43.8599)">
      <stop stop-color="#FFCC00" />
      <stop offset="0.1242" stop-color="#FFCC00" />
      <stop offset="0.5672" stop-color="#FE4A05" />
      <stop offset="0.6942" stop-color="#FF0F3F" />
      <stop offset="1" stop-color="#FE0657" stop-opacity="0" />
    </radialGradient>
    <radialGradient
      id="paint2_radial_2183_5829"
      cx="0"
      cy="0"
      r="1"
      gradientUnits="userSpaceOnUse"
      gradientTransform="translate(12.7005 6.96726) rotate(162.711) scale(32.723 14.6485)">
      <stop stop-color="#780CFF" />
      <stop offset="0.1944" stop-color="#780CFF" />
      <stop offset="1" stop-color="#820BFF" stop-opacity="0" />
    </radialGradient>
    <radialGradient
      id="paint3_radial_2183_5829"
      cx="0"
      cy="0"
      r="1"
      gradientUnits="userSpaceOnUse"
      gradientTransform="translate(32.8781 55.9158) rotate(-59.8696) scale(17.0937 22.2544)">
      <stop stop-color="#FFCC00" />
      <stop offset="1" stop-color="#FFCC00" stop-opacity="0" />
    </radialGradient>
  </defs>
</svg>
